<?xml version="1.0" encoding="UTF-8"?>
<svg xmlns="http://www.w3.org/2000/svg" fill="none" viewBox="0 0 12 12"><path fill="#FF00CD" d="M2.936 6.817A2.91 2.91 0 0 1 5.63 8.719c.122.336.183.684.185 1.041.003.334.51.334.507 0-.008-1.443-.897-2.741-2.216-3.249a3.341 3.341 0 0 0-1.17-.212c-.326-.003-.326.515 0 .518z" style="fill: #000000;"/><path fill="#FF00CD" d="M7.094 8.206a4.505 4.505 0 0 0-4.158-2.902c-.326 0-.326-.518 0-.518a4.88 4.88 0 0 1 1.7.305c.934.353 1.741.98 2.329 1.804.592.829.914 1.842.94 2.865.007.334-.5.332-.507 0a4.785 4.785 0 0 0-.304-1.554z" style="fill: #000000;"/><path fill="#FF00CD" d="M2.936 3.757A5.82 5.82 0 0 1 6.34 4.868 5.987 5.987 0 0 1 8.441 7.68c.238.668.36 1.368.362 2.08 0 .334.506.334.506 0a6.628 6.628 0 0 0-1.164-3.757 6.464 6.464 0 0 0-3.008-2.362 6.255 6.255 0 0 0-2.2-.4c-.327-.002-.327.516 0 .516zM3.583 9.833a.75.75 0 1 0 0-1.5.75.75 0 0 0 0 1.5z" style="fill: #000000;"/><path fill="#FF00CD" fill-rule="evenodd" d="M2 0a2 2 0 0 0-2 2v8a2 2 0 0 0 2 2h8a2 2 0 0 0 2-2V2a2 2 0 0 0-2-2H2zm8 1H2a1 1 0 0 0-1 1v8a1 1 0 0 0 1 1h8a1 1 0 0 0 1-1V2a1 1 0 0 0-1-1z" clip-rule="evenodd" style="fill: #000000;"/></svg>
